<?xml version="1.0" encoding="utf-8"?>
<!-- Generator: Adobe Illustrator 27.9.1, SVG Export Plug-In . SVG Version: 6.00 Build 0)  -->
<svg version="1.1" id="Layer_1" xmlns="http://www.w3.org/2000/svg" xmlns:xlink="http://www.w3.org/1999/xlink" x="0px" y="0px"
	 viewBox="0 0 574 376" style="enable-background:new 0 0 574 376;" xml:space="preserve">
<style type="text/css">
	.st0{fill:url(#SVGID_1_);}
	.st1{fill:url(#SVGID_00000165946200380036326880000008298174412850850986_);}
	.st2{fill:url(#SVGID_00000062886683613514919720000006476056671893359747_);}
	.st3{fill:url(#SVGID_00000132054990952520308550000015976644152332909974_);}
	.st4{fill:url(#SVGID_00000009572507125535218270000003525176723146545577_);}
	.st5{fill:url(#SVGID_00000076591424517599619680000005089574828081912450_);}
	.st6{fill:url(#SVGID_00000105393838975770142830000004858130456028245169_);}
	.st7{fill:url(#SVGID_00000057837740579746239320000000452360476782242218_);}
	.st8{fill:url(#SVGID_00000083780133584879462040000007881282221869259699_);}
	.st9{fill:url(#SVGID_00000088123161402844508020000008403653956548271246_);}
	.st10{fill:url(#SVGID_00000140715467779685910450000012454697911426508684_);}
	.st11{fill:url(#SVGID_00000031203992298874370850000015750151829254738850_);}
	.st12{fill:url(#SVGID_00000067210303917967093850000014745240526792636048_);}
	.st13{fill:url(#SVGID_00000093873505885049309030000002520738649172541335_);}
	.st14{fill:url(#SVGID_00000077290405992001683340000011851324222984243900_);}
	.st15{fill:url(#SVGID_00000131351408666152713050000018165904051772046263_);}
</style>
<g>
	<linearGradient id="SVGID_1_" gradientUnits="userSpaceOnUse" x1="286.2617" y1="213.8848" x2="372.9355" y2="213.8848">
		<stop  offset="0" style="stop-color:#32CF93"/>
		<stop  offset="1" style="stop-color:#32CF93"/>
	</linearGradient>
	<path class="st0" d="M349.15,278.48c5.16-7.56,5.57-15.21,1.3-23.08c-0.71-1.31-1.58-2.6-2.6-3.68
		c-16.29-17.35-32.62-34.66-48.91-52c-2.44-2.6-4.79-5.29-7.08-8.03c-11.24-13.47-5.35-36.77,15.9-42.32
		c0.48-0.13,1.02-0.02,1.93-0.02c-2.84,4.55-4.43,9.1-3.83,14.32c0.62,5.42,2.95,9.89,6.6,13.77
		c17.73,18.81,35.57,37.53,53.19,56.45c7.25,7.79,9.17,17.08,5.43,27.1C367.33,271,359.77,276.64,349.15,278.48z"/>
	
		<linearGradient id="SVGID_00000059303734243873346330000013405575192374216102_" gradientUnits="userSpaceOnUse" x1="230.2788" y1="214.6532" x2="302.758" y2="214.6532">
		<stop  offset="0" style="stop-color:#32CF93"/>
		<stop  offset="1" style="stop-color:#32CF93"/>
	</linearGradient>
	<path style="fill:url(#SVGID_00000059303734243873346330000013405575192374216102_);" d="M302.76,278.76
		c-8.35,0-16.12,0.1-23.88-0.13c-0.94-0.03-2.25-1.72-2.69-2.9c-6.25-16.69-12.35-33.44-18.54-50.15
		c-7.92-21.37-15.92-42.72-23.84-64.09c-1.23-3.32-2.25-6.73-3.53-10.58c1.8-0.1,3.24-0.24,4.68-0.26c3.03-0.04,6.07,0.18,9.08-0.05
		c9.16-0.7,13.54,4.82,15.87,11.11c3.98,10.74,7.89,21.5,11.84,32.25c9.94,27.08,19.88,54.15,29.82,81.23
		C301.93,276.16,302.23,277.16,302.76,278.76z"/>
	
		<linearGradient id="SVGID_00000069381354368517177880000005918922391494252472_" gradientUnits="userSpaceOnUse" x1="332.7988" y1="166.4413" x2="364.7663" y2="166.4413">
		<stop  offset="0" style="stop-color:#32CF93"/>
		<stop  offset="1" style="stop-color:#32CF93"/>
	</linearGradient>
	<path style="fill:url(#SVGID_00000069381354368517177880000005918922391494252472_);" d="M349.34,150.46
		c8.32,0.01,15.46,7.41,15.43,15.98c-0.03,8.83-7.3,16.02-16.15,15.98c-8.52-0.04-15.78-7.39-15.82-16.01
		C332.76,157.59,340.17,150.44,349.34,150.46z"/>
	
		<linearGradient id="SVGID_00000043433827831269159700000018154057713683499946_" gradientUnits="userSpaceOnUse" x1="190.481" y1="263.325" x2="221.6776" y2="263.325">
		<stop  offset="0" style="stop-color:#32CF93"/>
		<stop  offset="1" style="stop-color:#32CF93"/>
	</linearGradient>
	<path style="fill:url(#SVGID_00000043433827831269159700000018154057713683499946_);" d="M221.68,263.38
		c-0.04,8.51-7.34,15.74-15.78,15.61c-8.16-0.12-15.44-7.55-15.42-15.75c0.02-8.43,7.64-15.76,16.21-15.6
		C214.77,247.81,221.71,255.09,221.68,263.38z"/>
</g>
</svg>
